HIERARCHY
ROOT Hips
{
	OFFSET 0.00 0.00 0.00
	CHANNELS 6 Xposition Yposition Zposition Xrotation Yrotation Zrotation
	JOINT Spine
	{
		OFFSET 0.00000 1.92919 2.89379
		CHANNELS 3 Xrotation Yrotation Zrotation
		JOINT Spine1
		{
			OFFSET 0.00000 0.67000 3.79977
			CHANNELS 3 Xrotation Yrotation Zrotation
			JOINT Spine2
			{
				OFFSET 0.00000 0.33628 3.84370
				CHANNELS 3 Xrotation Yrotation Zrotation
				JOINT Spine3
				{
					OFFSET 0.00000 0.00000 3.85838
					CHANNELS 3 Xrotation Yrotation Zrotation
					JOINT Neck
					{
						OFFSET 0.00000 -1.44688 10.12826
						CHANNELS 3 Xrotation Yrotation Zrotation
						JOINT Head
						{
							OFFSET 0.00000 -0.92125 5.22468
							CHANNELS 3 Xrotation Yrotation Zrotation
							End Site
							{
								OFFSET 0.00000 0.00001 6.24576
							}
						}
					}
					JOINT RightShoulder
					{
						OFFSET -1.19724 -1.99539 6.46510
						CHANNELS 3 Xrotation Yrotation Zrotation
						JOINT RightArm
						{
							OFFSET -5.94629 0.00000 0.00000
							CHANNELS 3 Xrotation Yrotation Zrotation
							JOINT RightForeArm
							{
								OFFSET -11.02134 0.00000 0.00000
								CHANNELS 3 Xrotation Yrotation Zrotation
								JOINT RightHand
								{
									OFFSET -10.43440 0.00000 0.00000
									CHANNELS 3 Xrotation Yrotation Zrotation
									JOINT RightHandEnd
									{
										OFFSET -2.82937 0.00000 0.00000
										CHANNELS 3 Xrotation Yrotation Zrotation
										End Site
										{
											OFFSET -2.82937 0.00000 0.00000
										}
									}
									JOINT RightHandThumb1
									{
										OFFSET -1.13175 -1.88625 -0.75450
										CHANNELS 3 Yrotation Xrotation Zrotation
										End Site
										{
											OFFSET -2.73296 -0.73229 0.00000
										}
									}
								}
							}
						}
					}
					JOINT LeftShoulder
					{
						OFFSET 1.19724 -1.99539 6.46510
						CHANNELS 3 Xrotation Yrotation Zrotation
						JOINT LeftArm
						{
							OFFSET 5.94629 0.00000 0.00000
							CHANNELS 3 Xrotation Yrotation Zrotation
							JOINT LeftForeArm
							{
								OFFSET 11.02134 0.00000 0.00000
								CHANNELS 3 Xrotation Yrotation Zrotation
								JOINT LeftHand
								{
									OFFSET 10.43440 0.00000 0.00000
									CHANNELS 3 Xrotation Yrotation Zrotation
									JOINT LeftHandEnd
									{
										OFFSET 2.82937 0.00000 0.00000
										CHANNELS 3 Xrotation Yrotation Zrotation
										End Site
										{
											OFFSET 2.82937 0.00000 0.00000
										}
									}
									JOINT LeftHandThumb1
									{
										OFFSET 1.13175 -1.88625 -0.75450
										CHANNELS 3 Yrotation Xrotation Zrotation
										End Site
										{
											OFFSET 2.73296 -0.73229 0.00000
										}
									}
								}
							}
						}
					}
				}
			}
		}
	}
	JOINT RightUpLeg
	{
		OFFSET -3.55181 0.00000 -1.03761
		CHANNELS 3 Xrotation Yrotation Zrotation
		JOINT RightLeg
		{
			OFFSET 0.00001 0.00000 -15.86106
			CHANNELS 3 Xrotation Yrotation Zrotation
			JOINT RightFoot
			{
				OFFSET 0.00001 0.00000 -16.30493
				CHANNELS 3 Xrotation Yrotation Zrotation
				JOINT RightToeBase
				{
					OFFSET 0.00000 -5.76215 -2.09725
					CHANNELS 3 Xrotation Yrotation Zrotation
					End Site
					{
						OFFSET 0.00000 -2.87338 -0.00000
					}
				}
			}
		}
	}
	JOINT LeftUpLeg
	{
		OFFSET 3.55181 0.00000 -1.03761
		CHANNELS 3 Xrotation Yrotation Zrotation
		JOINT LeftLeg
		{
			OFFSET 0.00001 0.00000 -15.86106
			CHANNELS 3 Xrotation Yrotation Zrotation
			JOINT LeftFoot
			{
				OFFSET 0.00001 0.00000 -16.30493
				CHANNELS 3 Xrotation Yrotation Zrotation
				JOINT LeftToeBase
				{
					OFFSET 0.00000 -5.76215 -2.09725
					CHANNELS 3 Xrotation Yrotation Zrotation
					End Site
					{
						OFFSET 0.00000 -2.87338 -0.00000
					}
				}
			}
		}
	}
}
MOTION
Frames: 15
Frame Time: 0.008342
 -19.1904 -11.8245 35.8975 1.0122 -1.7511 92.7283 -0.8916 1.0747 0.3757 -1.1858 -0.1232 0.0065 6.3556 -0.0834 -0.2750 3.0160 -0.4021 0.1035 10.7231 1.0790 5.3316 1.8167 5.2231 11.4275 4.7988 6.7316 -6.6109 -6.1152 -30.1824 10.3075 0.0000 0.0000 0.8041 -20.1247 13.7494 3.2207 -0.0000 -0.0000 -0.0000 -0.0000 0.0000 0.0000 3.9981 -7.8729 9.3183 13.6429 10.0702 -25.3871 -0.0000 0.0000 0.1702 -16.3194 -6.6710 1.3657 -0.0000 0.0000 -0.0000 0.0000 0.0000 0.0000 0.2611 -2.1969 -33.6382 7.1280 0.0000 0.0000 -8.1940 1.7104 -0.5951 0.5858 0.0000 0.0000 0.5799 2.1882 25.5898 8.9913 0.0000 0.0000 -5.6507 3.5025 1.5571 -4.9287 0.0000 -0.0000
 -19.1903 -11.8254 35.8976 1.0127 -1.7507 92.7254 -0.8882 1.0779 0.3761 -1.1847 -0.1211 0.0068 6.3515 -0.0837 -0.2754 3.0148 -0.4025 0.1034 10.7160 1.0787 5.3287 1.8225 5.2186 11.4260 4.8019 6.7287 -6.6127 -6.1227 -30.1901 10.3094 0.0000 0.0000 0.7943 -20.1262 13.7433 3.2212 0.0000 -0.0000 0.0000 0.0000 0.0000 -0.0000 3.9988 -7.8724 9.3226 13.6389 10.0663 -25.3832 -0.0000 0.0000 0.1676 -16.3298 -6.6748 1.3620 0.0000 -0.0000 -0.0000 0.0000 -0.0000 0.0000 0.2612 -2.1978 -33.6412 7.1272 0.0000 0.0000 -8.1946 1.7097 -0.5891 0.5877 0.0000 0.0000 0.5804 2.1883 25.5855 8.9888 0.0000 0.0000 -5.6503 3.4998 1.5638 -4.9271 0.0000 -0.0000
 -19.1902 -11.8265 35.8977 1.0136 -1.7499 92.7223 -0.8847 1.0824 0.3762 -1.1835 -0.1189 0.0069 6.3484 -0.0832 -0.2766 3.0127 -0.4026 0.1034 10.7060 1.0773 5.3258 1.8288 5.2130 11.4242 4.8037 6.7250 -6.6119 -6.1301 -30.1997 10.3089 0.0000 0.0000 0.7840 -20.1281 13.7351 3.2213 0.0000 -0.0000 -0.0000 -0.0000 -0.0000 -0.0000 3.9998 -7.8731 9.3293 13.6342 10.0615 -25.3783 -0.0000 0.0000 0.1639 -16.3443 -6.6795 1.3599 -0.0000 -0.0000 0.0000 -0.0000 0.0000 0.0000 0.2613 -2.1989 -33.6443 7.1257 0.0000 0.0000 -8.1954 1.7099 -0.5826 0.5912 0.0000 0.0000 0.5809 2.1888 25.5793 8.9856 0.0000 0.0000 -5.6498 3.4977 1.5732 -4.9245 0.0000 -0.0000
 -19.1902 -11.8279 35.8978 1.0150 -1.7489 92.7185 -0.8803 1.0883 0.3765 -1.1821 -0.1166 0.0073 6.3447 -0.0824 -0.2781 3.0108 -0.4031 0.1032 10.6934 1.0759 5.3225 1.8353 5.2068 11.4218 4.8065 6.7210 -6.6104 -6.1431 -30.2118 10.3044 0.0000 0.0000 0.7746 -20.1276 13.7240 3.2202 0.0000 -0.0000 -0.0000 0.0000 -0.0000 0.0000 4.0025 -7.8749 9.3365 13.6248 10.0583 -25.3708 -0.0000 0.0000 0.1581 -16.3613 -6.6872 1.3603 -0.0000 0.0000 -0.0000 -0.0000 0.0000 0.0000 0.2612 -2.2000 -33.6480 7.1242 0.0000 0.0000 -8.1967 1.7107 -0.5748 0.5968 0.0000 0.0000 0.5810 2.1896 25.5716 8.9820 0.0000 0.0000 -5.6492 3.4966 1.5858 -4.9212 0.0000 -0.0000
 -19.1902 -11.8294 35.8979 1.0172 -1.7475 92.7147 -0.8758 1.0963 0.3767 -1.1806 -0.1145 0.0078 6.3418 -0.0818 -0.2801 3.0083 -0.4038 0.1030 10.6784 1.0746 5.3192 1.8415 5.1995 11.4183 4.8088 6.7174 -6.6081 -6.1562 -30.2257 10.2984 0.0000 0.0000 0.7658 -20.1269 13.7119 3.2177 -0.0000 0.0000 0.0000 -0.0000 -0.0000 -0.0000 4.0052 -7.8771 9.3430 13.6143 10.0554 -25.3602 -0.0000 0.0000 0.1509 -16.3819 -6.6966 1.3622 0.0000 -0.0000 -0.0000 0.0000 0.0000 -0.0000 0.2606 -2.2006 -33.6523 7.1227 0.0000 0.0000 -8.1987 1.7127 -0.5660 0.6050 0.0000 0.0000 0.5807 2.1912 25.5620 8.9782 0.0000 0.0000 -5.6484 3.4965 1.6012 -4.9176 0.0000 -0.0000
 -19.1904 -11.8311 35.8979 1.0205 -1.7451 92.7111 -0.8715 1.1066 0.3765 -1.1796 -0.1133 0.0088 6.3397 -0.0813 -0.2820 3.0057 -0.4043 0.1030 10.6613 1.0739 5.3158 1.8466 5.1918 11.4134 4.8111 6.7146 -6.6053 -6.1697 -30.2416 10.2904 0.0000 0.0000 0.7579 -20.1273 13.6992 3.2153 -0.0000 -0.0000 0.0000 -0.0000 -0.0000 0.0000 4.0067 -7.8803 9.3469 13.6038 10.0536 -25.3453 -0.0000 0.0000 0.1426 -16.4038 -6.7075 1.3657 -0.0000 0.0000 -0.0000 0.0000 0.0000 0.0000 0.2583 -2.1998 -33.6580 7.1223 0.0000 0.0000 -8.2018 1.7160 -0.5560 0.6154 0.0000 0.0000 0.5790 2.1941 25.5497 8.9740 0.0000 0.0000 -5.6471 3.4976 1.6199 -4.9140 0.0000 -0.0000
 -19.1908 -11.8328 35.8979 1.0246 -1.7408 92.7076 -0.8684 1.1173 0.3766 -1.1788 -0.1115 0.0092 6.3386 -0.0804 -0.2836 3.0030 -0.4052 0.1033 10.6423 1.0731 5.3118 1.8511 5.1845 11.4075 4.8141 6.7108 -6.6037 -6.1823 -30.2568 10.2837 0.0000 0.0000 0.7508 -20.1295 13.6869 3.2129 0.0000 0.0000 -0.0000 -0.0000 0.0000 0.0000 4.0083 -7.8845 9.3487 13.5913 10.0539 -25.3277 -0.0000 0.0000 0.1335 -16.4255 -6.7200 1.3714 -0.0000 -0.0000 -0.0000 0.0000 -0.0000 0.0000 0.2530 -2.1978 -33.6642 7.1238 0.0000 0.0000 -8.2060 1.7204 -0.5454 0.6275 0.0000 0.0000 0.5748 2.1979 25.5347 8.9703 0.0000 0.0000 -5.6455 3.4996 1.6424 -4.9108 0.0000 -0.0000
 -19.1913 -11.8347 35.8979 1.0280 -1.7365 92.7048 -0.8655 1.1273 0.3767 -1.1778 -0.1086 0.0096 6.3385 -0.0805 -0.2849 3.0004 -0.4060 0.1038 10.6222 1.0725 5.3079 1.8542 5.1779 11.4004 4.8178 6.7067 -6.6035 -6.1936 -30.2714 10.2784 0.0000 0.0000 0.7446 -20.1330 13.6760 3.2098 -0.0000 0.0000 -0.0000 -0.0000 -0.0000 0.0000 4.0102 -7.8893 9.3486 13.5788 10.0545 -25.3093 -0.0000 0.0000 0.1255 -16.4469 -6.7310 1.3791 0.0000 -0.0000 -0.0000 -0.0000 0.0000 -0.0000 0.2476 -2.1968 -33.6701 7.1247 0.0000 0.0000 -8.2094 1.7246 -0.5361 0.6404 0.0000 0.0000 0.5697 2.2007 25.5187 8.9675 0.0000 0.0000 -5.6441 3.5027 1.6655 -4.9085 0.0000 -0.0000
 -19.1919 -11.8365 35.8978 1.0316 -1.7320 92.7028 -0.8627 1.1373 0.3767 -1.1770 -0.1057 0.0099 6.3395 -0.0806 -0.2857 2.9980 -0.4070 0.1046 10.6017 1.0724 5.3041 1.8560 5.1723 11.3921 4.8219 6.7024 -6.6041 -6.2031 -30.2843 10.2737 0.0000 0.0000 0.7406 -20.1396 13.6675 3.2065 0.0000 0.0000 -0.0000 -0.0000 -0.0000 0.0000 4.0123 -7.8945 9.3465 13.5666 10.0558 -25.2908 -0.0000 0.0000 0.1191 -16.4655 -6.7396 1.3884 -0.0000 0.0000 -0.0000 0.0000 0.0000 -0.0000 0.2416 -2.1955 -33.6763 7.1261 0.0000 0.0000 -8.2127 1.7289 -0.5271 0.6533 0.0000 0.0000 0.5641 2.2037 25.5015 8.9648 0.0000 0.0000 -5.6423 3.5065 1.6896 -4.9075 0.0000 -0.0000
 -19.1926 -11.8383 35.8978 1.0352 -1.7276 92.7016 -0.8598 1.1474 0.3765 -1.1764 -0.1029 0.0104 6.3416 -0.0816 -0.2859 2.9959 -0.4081 0.1056 10.5813 1.0729 5.3008 1.8570 5.1682 11.3816 4.8262 6.6981 -6.6055 -6.2115 -30.2955 10.2685 0.0000 0.0000 0.7389 -20.1468 13.6627 3.2036 -0.0000 -0.0000 -0.0000 0.0000 0.0000 -0.0000 4.0152 -7.8997 9.3415 13.5549 10.0579 -25.2724 -0.0000 0.0000 0.1146 -16.4825 -6.7460 1.3991 0.0000 -0.0000 -0.0000 0.0000 0.0000 0.0000 0.2356 -2.1940 -33.6828 7.1278 0.0000 0.0000 -8.2155 1.7331 -0.5186 0.6651 0.0000 0.0000 0.5586 2.2070 25.4834 8.9619 0.0000 0.0000 -5.6397 3.5111 1.7139 -4.9083 0.0000 -0.0000
 -19.1933 -11.8399 35.8977 1.0383 -1.7244 92.7013 -0.8565 1.1558 0.3767 -1.1749 -0.0996 0.0105 6.3440 -0.0823 -0.2857 2.9940 -0.4094 0.1070 10.5616 1.0733 5.2976 1.8573 5.1661 11.3709 4.8308 6.6928 -6.6082 -6.2176 -30.3036 10.2649 0.0000 0.0000 0.7392 -20.1571 13.6620 3.2012 0.0000 0.0000 0.0000 -0.0000 -0.0000 0.0000 4.0199 -7.9048 9.3365 13.5440 10.0592 -25.2583 -0.0000 0.0000 0.1142 -16.4963 -6.7468 1.4094 0.0000 -0.0000 0.0000 0.0000 0.0000 0.0000 0.2310 -2.1932 -33.6891 7.1289 0.0000 0.0000 -8.2173 1.7362 -0.5114 0.6745 0.0000 0.0000 0.5545 2.2096 25.4661 8.9587 0.0000 0.0000 -5.6366 3.5163 1.7365 -4.9109 0.0000 -0.0000
 -19.1942 -11.8414 35.8976 1.0418 -1.7198 92.7019 -0.8543 1.1647 0.3765 -1.1744 -0.0971 0.0109 6.3474 -0.0835 -0.2845 2.9925 -0.4107 0.1086 10.5432 1.0749 5.2947 1.8575 5.1655 11.3586 4.8350 6.6874 -6.6112 -6.2238 -30.3092 10.2595 0.0000 0.0000 0.7424 -20.1677 13.6658 3.1994 0.0000 0.0000 -0.0000 0.0000 -0.0000 -0.0000 4.0233 -7.9091 9.3279 13.5365 10.0605 -25.2444 -0.0000 0.0000 0.1156 -16.5069 -6.7447 1.4196 0.0000 0.0000 0.0000 -0.0000 0.0000 -0.0000 0.2243 -2.1911 -33.6961 7.1313 0.0000 0.0000 -8.2191 1.7396 -0.5042 0.6810 0.0000 0.0000 0.5489 2.2133 25.4474 8.9549 0.0000 0.0000 -5.6323 3.5215 1.7594 -4.9153 0.0000 -0.0000
 -19.1950 -11.8427 35.8975 1.0448 -1.7163 92.7035 -0.8513 1.1724 0.3762 -1.1739 -0.0947 0.0114 6.3512 -0.0847 -0.2827 2.9914 -0.4120 0.1101 10.5268 1.0767 5.2920 1.8575 5.1666 11.3458 4.8387 6.6816 -6.6146 -6.2285 -30.3121 10.2537 0.0000 0.0000 0.7480 -20.1789 13.6744 3.1977 -0.0000 -0.0000 -0.0000 0.0000 -0.0000 -0.0000 4.0284 -7.9128 9.3179 13.5295 10.0616 -25.2333 -0.0000 0.0000 0.1200 -16.5137 -6.7381 1.4281 0.0000 -0.0000 -0.0000 0.0000 -0.0000 0.0000 0.2190 -2.1896 -33.7034 7.1330 0.0000 0.0000 -8.2197 1.7418 -0.4978 0.6840 0.0000 0.0000 0.5447 2.2165 25.4298 8.9506 0.0000 0.0000 -5.6273 3.5268 1.7795 -4.9216 0.0000 -0.0000
 -19.1959 -11.8439 35.8975 1.0476 -1.7126 92.7058 -0.8489 1.1791 0.3760 -1.1735 -0.0926 0.0118 6.3552 -0.0858 -0.2800 2.9906 -0.4134 0.1118 10.5123 1.0791 5.2898 1.8579 5.1691 11.3325 4.8422 6.6750 -6.6183 -6.2338 -30.3123 10.2470 0.0000 0.0000 0.7553 -20.1900 13.6866 3.1971 0.0000 -0.0000 -0.0000 -0.0000 -0.0000 -0.0000 4.0333 -7.9155 9.3067 13.5260 10.0611 -25.2252 -0.0000 0.0000 0.1265 -16.5184 -6.7272 1.4351 0.0000 -0.0000 0.0000 0.0000 -0.0000 -0.0000 0.2136 -2.1879 -33.7112 7.1347 0.0000 0.0000 -8.2197 1.7432 -0.4916 0.6826 0.0000 0.0000 0.5408 2.2198 25.4130 8.9454 0.0000 0.0000 -5.6214 3.5319 1.7977 -4.9293 0.0000 -0.0000
 -19.1967 -11.8449 35.8974 1.0501 -1.7087 92.7086 -0.8467 1.1849 0.3759 -1.1733 -0.0909 0.0122 6.3588 -0.0864 -0.2767 2.9904 -0.4148 0.1132 10.5000 1.0816 5.2879 1.8593 5.1728 11.3190 4.8451 6.6678 -6.6218 -6.2392 -30.3102 10.2399 0.0000 0.0000 0.7634 -20.1997 13.7011 3.1973 -0.0000 0.0000 -0.0000 0.0000 0.0000 0.0000 4.0385 -7.9172 9.2949 13.5251 10.0597 -25.2199 -0.0000 0.0000 0.1342 -16.5216 -6.7135 1.4404 0.0000 0.0000 -0.0000 -0.0000 0.0000 -0.0000 0.2080 -2.1862 -33.7194 7.1360 0.0000 0.0000 -8.2190 1.7439 -0.4856 0.6769 0.0000 0.0000 0.5369 2.2229 25.3983 8.9397 0.0000 0.0000 -5.6148 3.5366 1.8125 -4.9376 0.0000 -0.0000
